<svg width="25" height="25" viewBox="0 0 25 25" fill="none" xmlns="http://www.w3.org/2000/svg">
<path fill-rule="evenodd" clip-rule="evenodd" d="M20.66 12.6932C20.66 12.0905 20.6059 11.511 20.5055 10.9546H12.5V14.2425H17.0746C16.8775 15.3051 16.2786 16.2053 15.3784 16.808V18.9407H18.1255C19.7327 17.461 20.66 15.2819 20.66 12.6932Z" fill="#4285F4"/>
<path fill-rule="evenodd" clip-rule="evenodd" d="M12.5002 21C14.7952 21 16.7193 20.2389 18.1257 18.9407L15.3786 16.8079C14.6175 17.3179 13.6439 17.6193 12.5002 17.6193C10.2864 17.6193 8.41248 16.1241 7.74407 14.115H4.9043V16.3173C6.30294 19.0952 9.17749 21 12.5002 21Z" fill="#34A853"/>
<path fill-rule="evenodd" clip-rule="evenodd" d="M7.74387 14.1151C7.57387 13.6051 7.47728 13.0604 7.47728 12.5001C7.47728 11.9399 7.57387 11.3951 7.74387 10.8851V8.68286H4.90409C4.32841 9.83036 4 11.1285 4 12.5001C4 13.8717 4.32841 15.1699 4.90409 16.3174L7.74387 14.1151Z" fill="#FBBC05"/>
<path fill-rule="evenodd" clip-rule="evenodd" d="M12.5002 7.38069C13.7482 7.38069 14.8686 7.80955 15.7495 8.65183L18.1875 6.21387C16.7155 4.84227 14.7914 4 12.5002 4C9.17748 4 6.30294 5.90478 4.9043 8.68273L7.74407 10.885C8.41248 8.87592 10.2864 7.38069 12.5002 7.38069Z" fill="#EA4335"/>
</svg>
